<svg width="16" height="16" viewBox="0 0 16 16" fill="none" xmlns="http://www.w3.org/2000/svg">
<path d="M15.0773 15.956C15.5624 15.956 15.9559 15.5626 15.9559 15.0773V0.913859C15.9559 0.428484 15.5625 0.0351562 15.0773 0.0351562H0.913859C0.428484 0.0351562 0.0351562 0.428484 0.0351562 0.913859V15.0773C0.0351562 15.5625 0.428423 15.956 0.913859 15.956H15.0773Z" fill="#3C5A99"/>
<path d="M11.0199 15.956V9.79055H13.0893L13.3992 7.38777H11.0199V5.85375C11.0199 5.15809 11.2131 4.68402 12.2106 4.68402L13.483 4.68347V2.5344C13.2629 2.50512 12.5077 2.4397 11.629 2.4397C9.79452 2.4397 8.53862 3.55945 8.53862 5.61579V7.38777H6.46387V9.79055H8.53862V15.956H11.0199Z" fill="white"/>
</svg>
